HIERARCHY
ROOT Hips
{
 OFFSET 0.000000 0.000000 0.000000
 CHANNELS 6 Xposition Yposition Zposition Yrotation Xrotation Zrotation
 JOINT Chest
 {
  OFFSET 0.000000 9.585900 0.002600
  CHANNELS 3 Yrotation Xrotation Zrotation
  JOINT Chest2
  {
   OFFSET 0.000000 9.601200 -0.005300
   CHANNELS 3 Yrotation Xrotation Zrotation
   JOINT Chest3
   {
    OFFSET 0.000000 9.561800 0.000000
    CHANNELS 3 Yrotation Xrotation Zrotation
    JOINT Chest4
    {
     OFFSET 0.000000 9.552100 0.000000
     CHANNELS 3 Yrotation Xrotation Zrotation
     JOINT Neck
     {
      OFFSET 0.000000 14.453000 0.000000
      CHANNELS 3 Yrotation Xrotation Zrotation
      JOINT Head
      {
       OFFSET 0.000000 8.936500 -0.011300
       CHANNELS 3 Yrotation Xrotation Zrotation
       End Site
       {
        OFFSET 0.000000 17.073600 -0.006000
       }
      }
     }
     JOINT RightCollar
     {
      OFFSET -2.921100 9.558500 0.000000
      CHANNELS 3 Yrotation Xrotation Zrotation
      JOINT RightShoulder
      {
       OFFSET -13.519700 0.000000 0.000000
       CHANNELS 3 Yrotation Xrotation Zrotation
       JOINT RightElbow
       {
        OFFSET 0.000000 -29.696600 0.000000
        CHANNELS 3 Yrotation Xrotation Zrotation
        JOINT RightWrist
        {
         OFFSET 0.000000 -24.004700 0.000000
         CHANNELS 3 Yrotation Xrotation Zrotation
         End Site
         {
          OFFSET 0.000000 -17.728500 0.000000
         }
        }
       }
      }
     }
     JOINT LeftCollar
     {
      OFFSET 2.921100 9.558500 0.000000
      CHANNELS 3 Yrotation Xrotation Zrotation
      JOINT LeftShoulder
      {
       OFFSET 13.519700 0.000000 0.000000
       CHANNELS 3 Yrotation Xrotation Zrotation
       JOINT LeftElbow
       {
        OFFSET 0.000000 -29.696600 0.000000
        CHANNELS 3 Yrotation Xrotation Zrotation
        JOINT LeftWrist
        {
         OFFSET 0.000000 -24.004700 0.000000
         CHANNELS 3 Yrotation Xrotation Zrotation
         End Site
         {
          OFFSET 0.000000 -17.728500 0.000000
         }
        }
       }
      }
     }
    }
   }
  }
 }
 JOINT RightHip
 {
  OFFSET -7.771700 -0.012900 -0.001300
  CHANNELS 3 Yrotation Xrotation Zrotation
  JOINT RightKnee
  {
   OFFSET 0.000000 -40.869800 0.001200
   CHANNELS 3 Yrotation Xrotation Zrotation
   JOINT RightAnkle
   {
    OFFSET 0.000000 -39.717900 0.002100
    CHANNELS 3 Yrotation Xrotation Zrotation
    JOINT RightToe
    {
     OFFSET 0.000000 -4.965400 11.033500
     CHANNELS 3 Yrotation Xrotation Zrotation
     End Site
     {
      OFFSET 0.000000 -1.423100 5.872300
     }
    }
   }
  }
 }
 JOINT LeftHip
 {
  OFFSET 7.771700 -0.012900 -0.001300
  CHANNELS 3 Yrotation Xrotation Zrotation
  JOINT LeftKnee
  {
   OFFSET 0.000000 -40.869800 0.001200
   CHANNELS 3 Yrotation Xrotation Zrotation
   JOINT LeftAnkle
   {
    OFFSET 0.000000 -39.717900 0.002100
    CHANNELS 3 Yrotation Xrotation Zrotation
    JOINT LeftToe
    {
     OFFSET 0.000000 -4.965400 11.033500
     CHANNELS 3 Yrotation Xrotation Zrotation
     End Site
     {
      OFFSET 0.000000 -1.423100 5.872300
     }
    }
   }
  }
 }
}
MOTION
Frames: 11
Frame Time: 0.008333
-19.275891 54.243749 38.516836 -179.833309 -31.345509 -11.082714 -0.420888 14.375302 5.786748 -0.388786 8.181073 1.956428 -0.437519 10.219129 2.437647 -0.390057 8.178603 1.954215 4.423226 19.236250 -2.190845 5.251291 -5.204968 -3.410569 2.170325 -1.867214 -4.866808 -16.486366 -6.000595 6.687278 28.100844 -73.474504 -8.995875 8.618015 -12.876977 -26.101744 -8.338171 2.258951 -2.806427 6.272890 -2.270870 -0.959881 -74.536276 -77.260127 78.624547 10.582487 -16.565329 5.505014 -17.060075 -34.213231 5.919975 47.373281 84.426867 42.996894 0.190188 -18.757407 2.018028 -0.903826 2.401239 -0.401084 -14.998585 -46.150339 16.484826 176.792756 79.781148 172.150243 -2.612746 -18.233586 2.082082 -0.114482 -0.534218 0.007222
-19.277248 54.269155 38.518074 -179.833342 -31.336436 -11.085991 -0.416351 14.363384 5.791946 -0.388993 8.178622 1.953908 -0.432514 10.207158 2.429121 -0.391589 8.173648 1.949494 4.412495 19.274771 -2.190653 5.252423 -5.205350 -3.391277 2.209002 -1.874275 -4.901424 -16.485721 -6.018634 6.614947 27.870444 -73.524703 -8.707029 8.581281 -12.843336 -26.102525 -8.315338 2.218048 -2.822877 6.266900 -2.296668 -0.954900 -74.575452 -77.248135 78.673823 10.583325 -16.521208 5.501080 -17.069939 -34.234810 5.928443 47.537425 84.442785 43.158703 0.213952 -18.780897 2.017729 -0.926244 2.415581 -0.409141 -14.992356 -46.166439 16.508836 176.823859 79.778115 172.166527 -2.643311 -18.231401 2.103459 -0.109184 -0.530386 0.004623
-19.285049 54.294054 38.517564 -179.792342 -31.329156 -11.077500 -0.425994 14.345738 5.772146 -0.394133 8.168491 1.945134 -0.449995 10.212297 2.428559 -0.379334 8.143085 1.921889 4.400121 19.338560 -2.159620 5.239819 -5.137205 -3.364794 2.237796 -1.853419 -4.917355 -16.503938 -6.041108 6.550897 27.492731 -73.563798 -8.290001 8.552593 -12.820571 -26.076459 -8.304571 2.208535 -2.820505 6.264618 -2.327398 -0.954064 -74.613358 -77.241513 78.718147 10.575422 -16.469028 5.495608 -17.087630 -34.257331 5.898962 47.700551 84.473074 43.307945 0.232112 -18.809441 2.031088 -0.942368 2.423773 -0.417004 -14.996271 -46.181049 16.480971 176.666036 79.778145 171.988674 -2.692644 -18.221457 2.129943 -0.110590 -0.528031 0.003674
-19.298903 54.318726 38.515171 -179.710684 -31.325694 -11.057815 -0.442989 14.331057 5.733751 -0.399394 8.155877 1.930065 -0.489044 10.204956 2.422865 -0.370135 8.148699 1.911030 4.381555 19.380497 -2.130643 5.207295 -5.018379 -3.316028 2.225406 -1.833820 -4.898835 -16.490896 -6.095670 6.461661 27.092904 -73.601277 -7.856489 8.533947 -12.793795 -26.039369 -8.298490 2.184416 -2.821660 6.259547 -2.364419 -0.954755 -74.671881 -77.235451 78.783196 10.594549 -16.439321 5.490025 -17.110698 -34.275226 5.833346 47.925136 84.504922 43.498739 0.245493 -18.850770 2.070704 -0.972878 2.434713 -0.429357 -14.981505 -46.195480 16.404302 176.558617 79.787482 171.858520 -2.752522 -18.203694 2.166716 -0.108273 -0.525185 0.000821
-19.304840 54.343612 38.515411 -179.671501 -31.318036 -11.066906 -0.460476 14.327068 5.730466 -0.378468 8.154296 1.927740 -0.498460 10.195071 2.413619 -0.364127 8.155234 1.905933 4.367039 19.424088 -2.119538 5.181339 -5.019699 -3.281227 2.209302 -1.836651 -4.890643 -16.474790 -6.151671 6.379976 26.789713 -73.645534 -7.518561 8.525869 -12.751207 -26.005452 -8.295277 2.140323 -2.831496 6.244760 -2.385378 -0.944762 -74.833283 -77.243301 78.965337 10.610130 -16.387652 5.469229 -17.127465 -34.286952 5.822715 48.031637 84.523039 43.596742 0.256415 -18.878911 2.087047 -0.992077 2.447978 -0.435164 -14.965001 -46.211887 16.408666 176.552446 79.789454 171.842183 -2.800014 -18.191643 2.193273 -0.106874 -0.524461 0.003226
-19.308864 54.368520 38.516475 -179.644909 -31.310631 -11.082280 -0.463184 14.322591 5.741076 -0.353677 8.151078 1.924221 -0.504169 10.195841 2.408820 -0.359080 8.151213 1.898999 4.350045 19.439762 -2.098277 5.157569 -5.003781 -3.254103 2.245632 -1.826129 -4.924820 -16.539872 -6.170280 6.393242 26.805573 -73.678087 -7.511199 8.526922 -12.721342 -25.959964 -8.316499 2.122864 -2.820929 6.233638 -2.385962 -0.934314 -75.159086 -77.279385 79.334283 10.669149 -16.354994 5.411312 -17.141172 -34.295473 5.823716 48.101472 84.535507 43.668201 0.263069 -18.902520 2.092874 -0.993779 2.461276 -0.437524 -14.973208 -46.222875 16.431927 176.497946 79.789672 171.786490 -2.842076 -18.183368 2.211313 -0.108889 -0.522865 0.000943
-19.307723 54.379058 38.543316 -179.440038 -31.096376 -11.220169 -0.620122 14.141089 5.793044 -0.377757 8.149468 1.918099 -0.482282 10.196844 2.400759 -0.355451 8.134173 1.892842 4.324203 19.458131 -2.068805 5.143298 -4.989392 -3.237346 2.220123 -1.810036 -4.906602 -16.540447 -6.200894 6.362598 26.906832 -73.706666 -7.599829 8.537670 -12.686719 -25.920973 -8.317325 2.080402 -2.838937 6.237140 -2.500305 -0.956884 -74.961566 -77.207685 79.129516 10.708659 -16.293026 5.342932 -17.406595 -34.455723 5.938059 48.084278 84.542467 43.635787 0.275041 -18.922419 2.114783 -1.014024 2.477042 -0.451678 -15.325716 -46.569747 16.615019 176.238065 79.691763 171.484359 -2.658831 -17.680160 2.225613 -0.216177 -0.932725 -0.058173
-19.311286 54.404146 38.544534 -179.400254 -31.093671 -11.244384 -0.607126 14.136076 5.809574 -0.399754 8.149865 1.915334 -0.457804 10.188912 2.391389 -0.351227 8.105849 1.887354 4.296405 19.495697 -2.035752 5.133002 -4.987329 -3.225819 2.193462 -1.773006 -4.884962 -16.509338 -6.266555 6.294585 26.816402 -73.725262 -7.531616 8.549431 -12.639041 -25.887133 -8.322977 2.053697 -2.858270 6.226899 -2.560979 -0.956489 -74.942790 -77.161855 79.120089 10.733832 -16.221127 5.276328 -17.421943 -34.452006 5.950411 48.073826 84.556864 43.611659 0.278745 -18.945938 2.139587 -1.030644 2.488516 -0.456661 -15.349895 -46.570387 16.598825 176.089915 79.694510 171.302816 -2.368297 -17.693669 2.139491 -0.198909 -0.924158 -0.056306
-19.317608 54.430257 38.543124 -179.312739 -31.104821 -11.275946 -0.629766 14.135466 5.813005 -0.349207 8.098304 1.906463 -0.469961 10.180200 2.383265 -0.386985 8.119463 1.898793 4.290906 19.539828 -2.019259 5.086633 -4.944943 -3.172596 2.231685 -1.716964 -4.889169 -16.543528 -6.306057 6.265002 26.677339 -73.755126 -7.423833 8.556949 -12.578287 -25.862622 -8.336693 2.058980 -2.868514 6.210891 -2.580604 -0.941101 -75.105025 -77.145423 79.303226 10.757767 -16.161423 5.222577 -17.451969 -34.429219 5.929026 48.087457 84.572430 43.619096 0.264330 -18.966164 2.160165 -1.037970 2.489608 -0.454778 -15.389025 -46.553452 16.551965 175.976043 79.703795 171.158600 -2.105461 -17.704498 2.064546 -0.182122 -0.912853 -0.050341
-19.327108 54.455071 38.542568 -179.243167 -31.116624 -11.278587 -0.611975 14.083816 5.799370 -0.384534 8.108710 1.900647 -0.456373 10.150888 2.372440 -0.398307 8.119361 1.900262 4.267673 19.607400 -1.981989 5.052889 -4.830045 -3.118178 2.247530 -1.646418 -4.873975 -16.544367 -6.342084 6.235490 26.422000 -73.790598 -7.213678 8.575139 -12.514274 -25.863055 -8.348914 2.084081 -2.879966 6.179158 -2.549785 -0.904583 -75.448444 -77.154341 79.682153 10.780999 -16.120735 5.189578 -17.445178 -34.417249 5.896325 48.138299 84.590466 43.640423 0.256890 -18.996412 2.214006 -1.066766 2.498280 -0.466203 -15.392614 -46.546381 16.514765 175.809855 79.709776 170.954985 -2.011452 -17.680238 2.058424 -0.207114 -0.926637 -0.048024
-19.331764 54.480362 38.542831 -179.198984 -31.136186 -11.298430 -0.588490 14.041382 5.809474 -0.397204 8.104262 1.895364 -0.455105 10.132028 2.366352 -0.397161 8.104248 1.895312 4.235593 19.697310 -1.936672 5.046641 -4.746227 -3.087963 2.250413 -1.562036 -4.846335 -16.545732 -6.369521 6.208692 26.056064 -73.834301 -6.878512 8.539566 -12.435758 -25.765719 -8.359954 2.128335 -2.892906 6.159699 -2.602790 -0.899136 -75.487174 -77.108449 79.732389 10.801166 -16.074362 5.167818 -17.390721 -34.401023 5.875631 47.981613 84.619926 43.514690 0.218638 -18.998324 2.235096 -1.027418 2.487112 -0.454620 -15.401143 -46.523586 16.513597 175.817805 79.718684 170.950431 -1.955069 -17.677271 2.045771 -0.206894 -0.924160 -0.045266
